<svg width="1309" height="1024" viewBox="0 0 1309 1024" fill="none" xmlns="http://www.w3.org/2000/svg">
<path d="M5 1019.85C21.2039 1019.85 40.7705 998.612 51.0847 987.505C64.3259 973.245 78.1683 961.113 91.9567 947.817C105.583 934.677 119.228 921.644 131.999 907.656C144.439 894.032 158.065 880.76 169.91 866.547C186.394 846.766 199.145 824.071 219.193 807.668C237.519 792.674 256.341 770.782 269.424 751.158" stroke="#F90C0C" stroke-width="10" stroke-linecap="round"/>
<path d="M169.198 710.176C192.378 710.176 216.691 712.33 239.569 708.517C261.51 704.86 288.241 687.798 306.742 674.99C312.268 671.164 327 649.479 327 654.85C327 671.357 327 687.864 327 704.371C327 729.839 324.867 755.018 324.867 780.547" stroke="#F90C0C" stroke-width="10" stroke-linecap="round"/>
<path d="M1215.17 1051.08C1218.87 1035.31 1202.65 1011.4 1194.17 998.819C1183.3 982.665 1174.64 966.413 1164.83 949.947C1155.13 933.674 1145.55 917.409 1134.83 901.774C1124.39 886.547 1114.57 870.244 1103.42 855.461C1087.9 834.886 1068.7 817.281 1057.29 794.009C1046.86 772.737 1029.82 749.404 1013.68 732.177" stroke="#F90C0C" stroke-width="10" stroke-linecap="round"/>
<path d="M951.282 820.48C956.579 797.913 964.235 774.737 965.746 751.591C967.196 729.395 956.672 699.466 948.415 678.525C945.948 672.269 928.176 652.965 933.412 654.195C949.503 657.972 965.594 661.749 981.684 665.526C1006.51 671.353 1030.57 679.19 1055.45 685.032" stroke="#F90C0C" stroke-width="10" stroke-linecap="round"/>
<path d="M1303.75 0.237281C1287.55 0.237282 1267.98 21.4719 1257.67 32.5795C1244.43 46.8393 1230.59 58.9708 1216.8 72.2668C1203.17 85.4069 1189.53 98.44 1176.75 112.428C1164.32 126.052 1150.69 139.324 1138.84 153.537C1122.36 173.319 1109.61 196.013 1089.56 212.416C1071.23 227.41 1052.41 249.302 1039.33 268.927" stroke="#F90C0C" stroke-width="10" stroke-linecap="round"/>
<path d="M1139.56 309.909C1116.38 309.909 1092.06 307.754 1069.18 311.567C1047.24 315.224 1020.51 332.286 1002.01 345.094C996.485 348.92 981.754 370.606 981.754 365.234C981.754 348.727 981.754 332.22 981.754 315.714C981.754 290.245 983.886 265.066 983.886 239.538" stroke="#F90C0C" stroke-width="10" stroke-linecap="round"/>
<path d="M93.5836 -30.9998C89.8806 -15.2247 106.109 8.68286 114.579 21.2657C125.453 37.4194 134.116 53.6713 143.926 70.1372C153.621 86.41 163.207 102.675 173.924 118.31C184.362 133.537 194.185 149.84 205.333 164.623C220.849 185.198 240.058 202.804 251.466 226.075C261.894 247.347 278.932 270.68 295.072 287.907" stroke="#F90C0C" stroke-width="10" stroke-linecap="round"/>
<path d="M357.472 199.605C352.175 222.171 344.519 245.347 343.007 268.493C341.558 290.69 352.082 320.618 360.339 341.559C362.806 347.815 380.578 367.119 375.342 365.89C359.251 362.113 343.16 358.336 327.07 354.559C302.243 348.731 278.186 340.894 253.301 335.053" stroke="#F90C0C" stroke-width="10" stroke-linecap="round"/>
</svg>
